<mxfile host="app.diagrams.net" agent="Mozilla/5.0 (X11; Linux x86_64; rv:135.0) Gecko/20100101 Firefox/135.0" version="25.0.3">
  <diagram name="Page-1" id="4fR8Knwz0PV1LSwJ4ule">
    <mxGraphModel dx="1639" dy="551" grid="1" gridSize="10" guides="1" tooltips="1" connect="1" arrows="1" fold="1" page="1" pageScale="1" pageWidth="850" pageHeight="1100" math="0" shadow="0">
      <root>
        <mxCell id="0" />
        <mxCell id="1" parent="0" />
        <mxCell id="4bO4SZbr5IVygMqHIden-1" value="" style="endArrow=none;html=1;rounded=0;" edge="1" parent="1">
          <mxGeometry width="50" height="50" relative="1" as="geometry">
            <mxPoint x="200" y="600" as="sourcePoint" />
            <mxPoint x="200" y="280" as="targetPoint" />
          </mxGeometry>
        </mxCell>
        <mxCell id="4bO4SZbr5IVygMqHIden-42" value="&lt;font style=&quot;font-size: 9px;&quot; face=&quot;Courier New&quot;&gt;Balance $500&lt;/font&gt;" style="edgeLabel;html=1;align=center;verticalAlign=middle;resizable=0;points=[];" vertex="1" connectable="0" parent="4bO4SZbr5IVygMqHIden-1">
          <mxGeometry x="0.9375" y="1" relative="1" as="geometry">
            <mxPoint as="offset" />
          </mxGeometry>
        </mxCell>
        <mxCell id="4bO4SZbr5IVygMqHIden-64" value="Balance $600" style="edgeLabel;html=1;align=center;verticalAlign=middle;resizable=0;points=[];fontFamily=Courier New;fontSize=9;" vertex="1" connectable="0" parent="4bO4SZbr5IVygMqHIden-1">
          <mxGeometry x="0.2452" relative="1" as="geometry">
            <mxPoint as="offset" />
          </mxGeometry>
        </mxCell>
        <mxCell id="4bO4SZbr5IVygMqHIden-5" value="&lt;font style=&quot;font-size: 9px;&quot; face=&quot;Verdana&quot;&gt;Account A&lt;/font&gt;" style="sketch=0;shadow=0;dashed=0;html=1;strokeColor=none;fillColor=#505050;labelPosition=center;verticalLabelPosition=bottom;verticalAlign=top;outlineConnect=0;align=center;shape=mxgraph.office.databases.database_mini_2;fontSize=10;" vertex="1" parent="1">
          <mxGeometry x="180" y="210" width="40" height="50" as="geometry" />
        </mxCell>
        <mxCell id="4bO4SZbr5IVygMqHIden-40" value="" style="endArrow=none;html=1;rounded=0;" edge="1" parent="1">
          <mxGeometry width="50" height="50" relative="1" as="geometry">
            <mxPoint x="320" y="600" as="sourcePoint" />
            <mxPoint x="320" y="280" as="targetPoint" />
          </mxGeometry>
        </mxCell>
        <mxCell id="4bO4SZbr5IVygMqHIden-43" value="&lt;font style=&quot;font-size: 9px;&quot; face=&quot;Courier New&quot;&gt;Balance $500&lt;/font&gt;" style="edgeLabel;html=1;align=center;verticalAlign=middle;resizable=0;points=[];" vertex="1" connectable="0" parent="4bO4SZbr5IVygMqHIden-40">
          <mxGeometry x="0.9323" y="-1" relative="1" as="geometry">
            <mxPoint as="offset" />
          </mxGeometry>
        </mxCell>
        <mxCell id="4bO4SZbr5IVygMqHIden-65" value="Balance $400" style="edgeLabel;html=1;align=center;verticalAlign=middle;resizable=0;points=[];fontFamily=Courier New;fontSize=9;" vertex="1" connectable="0" parent="4bO4SZbr5IVygMqHIden-40">
          <mxGeometry x="0.2333" relative="1" as="geometry">
            <mxPoint as="offset" />
          </mxGeometry>
        </mxCell>
        <mxCell id="4bO4SZbr5IVygMqHIden-41" value="&lt;font face=&quot;Verdana&quot; style=&quot;font-size: 10px;&quot;&gt;Account B&lt;/font&gt;" style="sketch=0;shadow=0;dashed=0;html=1;strokeColor=none;fillColor=#505050;labelPosition=center;verticalLabelPosition=bottom;verticalAlign=top;outlineConnect=0;align=center;shape=mxgraph.office.databases.database_mini_2;" vertex="1" parent="1">
          <mxGeometry x="300" y="210" width="40" height="50" as="geometry" />
        </mxCell>
        <mxCell id="4bO4SZbr5IVygMqHIden-44" value="" style="endArrow=none;html=1;rounded=0;" edge="1" parent="1">
          <mxGeometry width="50" height="50" relative="1" as="geometry">
            <mxPoint x="40" y="600" as="sourcePoint" />
            <mxPoint x="40" y="280" as="targetPoint" />
          </mxGeometry>
        </mxCell>
        <mxCell id="4bO4SZbr5IVygMqHIden-45" value="" style="endArrow=none;html=1;rounded=0;" edge="1" parent="1">
          <mxGeometry width="50" height="50" relative="1" as="geometry">
            <mxPoint x="480" y="600" as="sourcePoint" />
            <mxPoint x="480" y="280" as="targetPoint" />
          </mxGeometry>
        </mxCell>
        <mxCell id="4bO4SZbr5IVygMqHIden-47" value="" style="endArrow=classic;html=1;rounded=0;" edge="1" parent="1">
          <mxGeometry width="50" height="50" relative="1" as="geometry">
            <mxPoint x="40" y="320" as="sourcePoint" />
            <mxPoint x="200" y="320" as="targetPoint" />
          </mxGeometry>
        </mxCell>
        <mxCell id="4bO4SZbr5IVygMqHIden-48" value="&lt;font style=&quot;font-size: 9px;&quot; face=&quot;Courier New&quot;&gt;begin transaction&lt;/font&gt;" style="edgeLabel;html=1;align=center;verticalAlign=middle;resizable=0;points=[];" vertex="1" connectable="0" parent="4bO4SZbr5IVygMqHIden-47">
          <mxGeometry relative="1" as="geometry">
            <mxPoint as="offset" />
          </mxGeometry>
        </mxCell>
        <mxCell id="4bO4SZbr5IVygMqHIden-49" value="" style="endArrow=classic;html=1;rounded=0;" edge="1" parent="1">
          <mxGeometry width="50" height="50" relative="1" as="geometry">
            <mxPoint x="200" y="360" as="sourcePoint" />
            <mxPoint x="40" y="360" as="targetPoint" />
          </mxGeometry>
        </mxCell>
        <mxCell id="4bO4SZbr5IVygMqHIden-50" value="&lt;font style=&quot;font-size: 9px;&quot; face=&quot;Courier New&quot;&gt;Fetch Balance from A&lt;br&gt;&lt;/font&gt;" style="edgeLabel;html=1;align=center;verticalAlign=middle;resizable=0;points=[];" vertex="1" connectable="0" parent="4bO4SZbr5IVygMqHIden-49">
          <mxGeometry relative="1" as="geometry">
            <mxPoint as="offset" />
          </mxGeometry>
        </mxCell>
        <mxCell id="4bO4SZbr5IVygMqHIden-51" value="&lt;font style=&quot;font-size: 10px;&quot; face=&quot;Verdana&quot;&gt;Balance $500&lt;/font&gt;" style="text;html=1;align=center;verticalAlign=middle;resizable=0;points=[];autosize=1;strokeColor=none;fillColor=none;" vertex="1" parent="1">
          <mxGeometry x="-50" y="348" width="90" height="30" as="geometry" />
        </mxCell>
        <mxCell id="4bO4SZbr5IVygMqHIden-54" value="" style="endArrow=classic;html=1;rounded=0;" edge="1" parent="1">
          <mxGeometry width="50" height="50" relative="1" as="geometry">
            <mxPoint x="480" y="320" as="sourcePoint" />
            <mxPoint x="320" y="320" as="targetPoint" />
          </mxGeometry>
        </mxCell>
        <mxCell id="4bO4SZbr5IVygMqHIden-55" value="&lt;font style=&quot;font-size: 9px;&quot; face=&quot;Courier New&quot;&gt;begin transaction&lt;/font&gt;" style="edgeLabel;html=1;align=center;verticalAlign=middle;resizable=0;points=[];" vertex="1" connectable="0" parent="4bO4SZbr5IVygMqHIden-54">
          <mxGeometry relative="1" as="geometry">
            <mxPoint as="offset" />
          </mxGeometry>
        </mxCell>
        <mxCell id="4bO4SZbr5IVygMqHIden-56" value="&lt;font face=&quot;Verdana&quot;&gt;Transaction T1&lt;/font&gt;" style="text;align=center;html=1;verticalAlign=middle;whiteSpace=wrap;rounded=0;fillColor=default;strokeColor=default;" vertex="1" parent="1">
          <mxGeometry x="-30" y="240" width="130" height="30" as="geometry" />
        </mxCell>
        <mxCell id="4bO4SZbr5IVygMqHIden-57" value="&lt;font face=&quot;Verdana&quot;&gt;Transaction T2&lt;/font&gt;" style="text;align=center;html=1;verticalAlign=middle;whiteSpace=wrap;rounded=0;fillColor=default;strokeColor=default;" vertex="1" parent="1">
          <mxGeometry x="420" y="240" width="130" height="30" as="geometry" />
        </mxCell>
        <mxCell id="4bO4SZbr5IVygMqHIden-58" value="" style="endArrow=classic;html=1;rounded=0;" edge="1" parent="1">
          <mxGeometry width="50" height="50" relative="1" as="geometry">
            <mxPoint x="480" y="378" as="sourcePoint" />
            <mxPoint x="320" y="378" as="targetPoint" />
          </mxGeometry>
        </mxCell>
        <mxCell id="4bO4SZbr5IVygMqHIden-59" value="transfer $100 from B to A" style="edgeLabel;html=1;align=center;verticalAlign=middle;resizable=0;points=[];fontFamily=Courier New;fontSize=9;" vertex="1" connectable="0" parent="4bO4SZbr5IVygMqHIden-58">
          <mxGeometry relative="1" as="geometry">
            <mxPoint as="offset" />
          </mxGeometry>
        </mxCell>
        <mxCell id="4bO4SZbr5IVygMqHIden-61" value="" style="endArrow=classic;html=1;rounded=0;dashed=1;" edge="1" parent="1">
          <mxGeometry width="50" height="50" relative="1" as="geometry">
            <mxPoint x="320" y="378" as="sourcePoint" />
            <mxPoint x="200" y="378" as="targetPoint" />
          </mxGeometry>
        </mxCell>
        <mxCell id="4bO4SZbr5IVygMqHIden-62" value="Send $100 from B to A" style="edgeLabel;html=1;align=center;verticalAlign=middle;resizable=0;points=[];fontFamily=Courier New;fontSize=6;" vertex="1" connectable="0" parent="4bO4SZbr5IVygMqHIden-61">
          <mxGeometry x="0.0024" relative="1" as="geometry">
            <mxPoint as="offset" />
          </mxGeometry>
        </mxCell>
        <mxCell id="4bO4SZbr5IVygMqHIden-68" value="" style="endArrow=classic;html=1;rounded=0;" edge="1" parent="1">
          <mxGeometry width="50" height="50" relative="1" as="geometry">
            <mxPoint x="320" y="440" as="sourcePoint" />
            <mxPoint x="40" y="440" as="targetPoint" />
          </mxGeometry>
        </mxCell>
        <mxCell id="4bO4SZbr5IVygMqHIden-69" value="&lt;font style=&quot;font-size: 9px;&quot; face=&quot;Courier New&quot;&gt;Fetch Balance from B&lt;/font&gt;" style="edgeLabel;html=1;align=center;verticalAlign=middle;resizable=0;points=[];" vertex="1" connectable="0" parent="4bO4SZbr5IVygMqHIden-68">
          <mxGeometry x="0.602" y="-2" relative="1" as="geometry">
            <mxPoint x="24" as="offset" />
          </mxGeometry>
        </mxCell>
        <mxCell id="4bO4SZbr5IVygMqHIden-70" value="&lt;font style=&quot;font-size: 10px;&quot; face=&quot;Verdana&quot;&gt;Balance $400&lt;/font&gt;" style="text;html=1;align=center;verticalAlign=middle;resizable=0;points=[];autosize=1;strokeColor=none;fillColor=none;" vertex="1" parent="1">
          <mxGeometry x="-50" y="420" width="90" height="30" as="geometry" />
        </mxCell>
      </root>
    </mxGraphModel>
  </diagram>
</mxfile>
